<mxfile host="Electron" agent="Mozilla/5.0 (Macintosh; Intel Mac OS X 10_15_7) AppleWebKit/537.36 (KHTML, like Gecko) draw.io/28.0.4 Chrome/138.0.7204.97 Electron/37.2.1 Safari/537.36" version="28.0.4">
  <diagram name="第 1 页" id="QVaJL_24Vq5ZKJQ5-4kN">
    <mxGraphModel dx="1010" dy="604" grid="1" gridSize="10" guides="1" tooltips="1" connect="1" arrows="1" fold="1" page="1" pageScale="1" pageWidth="827" pageHeight="1169" math="0" shadow="0">
      <root>
        <mxCell id="0" />
        <mxCell id="1" parent="0" />
        <mxCell id="6kdPxDedIXkhTOWvpnSC-3" value="" style="edgeStyle=orthogonalEdgeStyle;rounded=0;orthogonalLoop=1;jettySize=auto;html=1;" edge="1" parent="1" source="6kdPxDedIXkhTOWvpnSC-1" target="6kdPxDedIXkhTOWvpnSC-2">
          <mxGeometry relative="1" as="geometry" />
        </mxCell>
        <mxCell id="6kdPxDedIXkhTOWvpnSC-1" value="fluent-bit&lt;div&gt;(for s3)&lt;/div&gt;" style="rounded=0;whiteSpace=wrap;html=1;fillColor=#fff2cc;strokeColor=#d6b656;" vertex="1" parent="1">
          <mxGeometry x="80" y="190" width="120" height="60" as="geometry" />
        </mxCell>
        <mxCell id="6kdPxDedIXkhTOWvpnSC-7" value="" style="edgeStyle=orthogonalEdgeStyle;rounded=0;orthogonalLoop=1;jettySize=auto;html=1;fillColor=#ffe6cc;strokeColor=#d79b00;" edge="1" parent="1" source="6kdPxDedIXkhTOWvpnSC-2" target="6kdPxDedIXkhTOWvpnSC-6">
          <mxGeometry relative="1" as="geometry" />
        </mxCell>
        <mxCell id="6kdPxDedIXkhTOWvpnSC-2" value="fluentd" style="whiteSpace=wrap;html=1;rounded=0;fillColor=#ffe6cc;strokeColor=#d79b00;" vertex="1" parent="1">
          <mxGeometry x="320" y="250" width="120" height="60" as="geometry" />
        </mxCell>
        <mxCell id="6kdPxDedIXkhTOWvpnSC-5" style="edgeStyle=orthogonalEdgeStyle;rounded=0;orthogonalLoop=1;jettySize=auto;html=1;entryX=0;entryY=0.5;entryDx=0;entryDy=0;" edge="1" parent="1" source="6kdPxDedIXkhTOWvpnSC-4" target="6kdPxDedIXkhTOWvpnSC-2">
          <mxGeometry relative="1" as="geometry" />
        </mxCell>
        <mxCell id="6kdPxDedIXkhTOWvpnSC-4" value="fluent-bit&lt;div&gt;(for others)&lt;/div&gt;" style="rounded=0;whiteSpace=wrap;html=1;fillColor=#fff2cc;strokeColor=#d6b656;" vertex="1" parent="1">
          <mxGeometry x="80" y="310" width="120" height="60" as="geometry" />
        </mxCell>
        <mxCell id="6kdPxDedIXkhTOWvpnSC-10" style="edgeStyle=orthogonalEdgeStyle;rounded=0;orthogonalLoop=1;jettySize=auto;html=1;entryX=0;entryY=0.5;entryDx=0;entryDy=0;" edge="1" parent="1" source="6kdPxDedIXkhTOWvpnSC-6" target="6kdPxDedIXkhTOWvpnSC-8">
          <mxGeometry relative="1" as="geometry" />
        </mxCell>
        <mxCell id="6kdPxDedIXkhTOWvpnSC-14" style="edgeStyle=orthogonalEdgeStyle;rounded=0;orthogonalLoop=1;jettySize=auto;html=1;" edge="1" parent="1" source="6kdPxDedIXkhTOWvpnSC-6" target="6kdPxDedIXkhTOWvpnSC-11">
          <mxGeometry relative="1" as="geometry" />
        </mxCell>
        <mxCell id="6kdPxDedIXkhTOWvpnSC-16" style="edgeStyle=orthogonalEdgeStyle;rounded=0;orthogonalLoop=1;jettySize=auto;html=1;entryX=0;entryY=0.5;entryDx=0;entryDy=0;" edge="1" parent="1" source="6kdPxDedIXkhTOWvpnSC-6" target="6kdPxDedIXkhTOWvpnSC-13">
          <mxGeometry relative="1" as="geometry" />
        </mxCell>
        <mxCell id="6kdPxDedIXkhTOWvpnSC-6" value="fluentd" style="whiteSpace=wrap;html=1;rounded=0;fillColor=#ffe6cc;strokeColor=#d79b00;" vertex="1" parent="1">
          <mxGeometry x="520" y="250" width="120" height="60" as="geometry" />
        </mxCell>
        <mxCell id="6kdPxDedIXkhTOWvpnSC-18" value="" style="edgeStyle=orthogonalEdgeStyle;rounded=0;orthogonalLoop=1;jettySize=auto;html=1;" edge="1" parent="1" source="6kdPxDedIXkhTOWvpnSC-8" target="6kdPxDedIXkhTOWvpnSC-17">
          <mxGeometry relative="1" as="geometry" />
        </mxCell>
        <mxCell id="6kdPxDedIXkhTOWvpnSC-8" value="fluent-bit" style="whiteSpace=wrap;html=1;rounded=0;fillColor=#dae8fc;strokeColor=#6c8ebf;" vertex="1" parent="1">
          <mxGeometry x="760" y="100" width="120" height="60" as="geometry" />
        </mxCell>
        <mxCell id="6kdPxDedIXkhTOWvpnSC-20" value="" style="edgeStyle=orthogonalEdgeStyle;rounded=0;orthogonalLoop=1;jettySize=auto;html=1;" edge="1" parent="1" source="6kdPxDedIXkhTOWvpnSC-11" target="6kdPxDedIXkhTOWvpnSC-19">
          <mxGeometry relative="1" as="geometry" />
        </mxCell>
        <mxCell id="6kdPxDedIXkhTOWvpnSC-11" value="fluent-bit" style="whiteSpace=wrap;html=1;rounded=0;fillColor=#dae8fc;strokeColor=#6c8ebf;" vertex="1" parent="1">
          <mxGeometry x="760" y="200" width="120" height="60" as="geometry" />
        </mxCell>
        <mxCell id="6kdPxDedIXkhTOWvpnSC-22" value="" style="edgeStyle=orthogonalEdgeStyle;rounded=0;orthogonalLoop=1;jettySize=auto;html=1;" edge="1" parent="1" source="6kdPxDedIXkhTOWvpnSC-12" target="6kdPxDedIXkhTOWvpnSC-21">
          <mxGeometry relative="1" as="geometry" />
        </mxCell>
        <mxCell id="6kdPxDedIXkhTOWvpnSC-12" value="fluent-bit" style="whiteSpace=wrap;html=1;rounded=0;fillColor=#dae8fc;strokeColor=#6c8ebf;" vertex="1" parent="1">
          <mxGeometry x="760" y="300" width="120" height="60" as="geometry" />
        </mxCell>
        <mxCell id="6kdPxDedIXkhTOWvpnSC-24" value="" style="edgeStyle=orthogonalEdgeStyle;rounded=0;orthogonalLoop=1;jettySize=auto;html=1;" edge="1" parent="1" source="6kdPxDedIXkhTOWvpnSC-13" target="6kdPxDedIXkhTOWvpnSC-23">
          <mxGeometry relative="1" as="geometry" />
        </mxCell>
        <mxCell id="6kdPxDedIXkhTOWvpnSC-27" style="edgeStyle=orthogonalEdgeStyle;rounded=0;orthogonalLoop=1;jettySize=auto;html=1;entryX=0;entryY=0.5;entryDx=0;entryDy=0;" edge="1" parent="1" source="6kdPxDedIXkhTOWvpnSC-13" target="6kdPxDedIXkhTOWvpnSC-25">
          <mxGeometry relative="1" as="geometry" />
        </mxCell>
        <mxCell id="6kdPxDedIXkhTOWvpnSC-28" style="edgeStyle=orthogonalEdgeStyle;rounded=0;orthogonalLoop=1;jettySize=auto;html=1;entryX=0;entryY=0.5;entryDx=0;entryDy=0;" edge="1" parent="1" source="6kdPxDedIXkhTOWvpnSC-13" target="6kdPxDedIXkhTOWvpnSC-26">
          <mxGeometry relative="1" as="geometry" />
        </mxCell>
        <mxCell id="6kdPxDedIXkhTOWvpnSC-13" value="fluent-bit" style="whiteSpace=wrap;html=1;rounded=0;fillColor=#dae8fc;strokeColor=#6c8ebf;" vertex="1" parent="1">
          <mxGeometry x="760" y="400" width="120" height="60" as="geometry" />
        </mxCell>
        <mxCell id="6kdPxDedIXkhTOWvpnSC-15" style="edgeStyle=orthogonalEdgeStyle;rounded=0;orthogonalLoop=1;jettySize=auto;html=1;entryX=0.025;entryY=0.633;entryDx=0;entryDy=0;entryPerimeter=0;" edge="1" parent="1" source="6kdPxDedIXkhTOWvpnSC-6" target="6kdPxDedIXkhTOWvpnSC-12">
          <mxGeometry relative="1" as="geometry" />
        </mxCell>
        <mxCell id="6kdPxDedIXkhTOWvpnSC-17" value="prometheus" style="whiteSpace=wrap;html=1;rounded=0;fillColor=#d5e8d4;strokeColor=#82b366;" vertex="1" parent="1">
          <mxGeometry x="960" y="100" width="120" height="60" as="geometry" />
        </mxCell>
        <mxCell id="6kdPxDedIXkhTOWvpnSC-19" value="influxdb" style="whiteSpace=wrap;html=1;rounded=0;fillColor=#e1d5e7;strokeColor=#9673a6;" vertex="1" parent="1">
          <mxGeometry x="960" y="200" width="120" height="60" as="geometry" />
        </mxCell>
        <mxCell id="6kdPxDedIXkhTOWvpnSC-21" value="s3" style="whiteSpace=wrap;html=1;rounded=0;fillColor=#f0a30a;fontColor=#000000;strokeColor=#BD7000;" vertex="1" parent="1">
          <mxGeometry x="960" y="300" width="120" height="60" as="geometry" />
        </mxCell>
        <mxCell id="6kdPxDedIXkhTOWvpnSC-30" style="edgeStyle=orthogonalEdgeStyle;rounded=0;orthogonalLoop=1;jettySize=auto;html=1;entryX=0;entryY=0.5;entryDx=0;entryDy=0;" edge="1" parent="1" source="6kdPxDedIXkhTOWvpnSC-23" target="6kdPxDedIXkhTOWvpnSC-29">
          <mxGeometry relative="1" as="geometry" />
        </mxCell>
        <mxCell id="6kdPxDedIXkhTOWvpnSC-23" value="elasticsearch (data)" style="whiteSpace=wrap;html=1;rounded=0;fillColor=#d5e8d4;strokeColor=#82b366;" vertex="1" parent="1">
          <mxGeometry x="960" y="400" width="120" height="60" as="geometry" />
        </mxCell>
        <mxCell id="6kdPxDedIXkhTOWvpnSC-31" style="edgeStyle=orthogonalEdgeStyle;rounded=0;orthogonalLoop=1;jettySize=auto;html=1;fillColor=#d5e8d4;strokeColor=#82b366;" edge="1" parent="1" source="6kdPxDedIXkhTOWvpnSC-25">
          <mxGeometry relative="1" as="geometry">
            <mxPoint x="1180" y="520" as="targetPoint" />
          </mxGeometry>
        </mxCell>
        <mxCell id="6kdPxDedIXkhTOWvpnSC-25" value="elasticsearch (data)" style="whiteSpace=wrap;html=1;rounded=0;fillColor=#d5e8d4;strokeColor=#82b366;" vertex="1" parent="1">
          <mxGeometry x="960" y="490" width="120" height="60" as="geometry" />
        </mxCell>
        <mxCell id="6kdPxDedIXkhTOWvpnSC-32" style="edgeStyle=orthogonalEdgeStyle;rounded=0;orthogonalLoop=1;jettySize=auto;html=1;entryX=0;entryY=0.5;entryDx=0;entryDy=0;fillColor=#d5e8d4;strokeColor=#82b366;" edge="1" parent="1" source="6kdPxDedIXkhTOWvpnSC-26" target="6kdPxDedIXkhTOWvpnSC-29">
          <mxGeometry relative="1" as="geometry" />
        </mxCell>
        <mxCell id="6kdPxDedIXkhTOWvpnSC-26" value="..." style="whiteSpace=wrap;html=1;rounded=0;fillColor=#d5e8d4;strokeColor=#82b366;" vertex="1" parent="1">
          <mxGeometry x="960" y="570" width="120" height="60" as="geometry" />
        </mxCell>
        <mxCell id="6kdPxDedIXkhTOWvpnSC-29" value="elasticsearch (view)" style="whiteSpace=wrap;html=1;rounded=0;fillColor=#d5e8d4;strokeColor=#82b366;" vertex="1" parent="1">
          <mxGeometry x="1181" y="490" width="120" height="60" as="geometry" />
        </mxCell>
        <mxCell id="6kdPxDedIXkhTOWvpnSC-36" value="&lt;font style=&quot;font-size: 16px;&quot;&gt;input&lt;/font&gt;" style="text;html=1;align=center;verticalAlign=middle;whiteSpace=wrap;rounded=0;" vertex="1" parent="1">
          <mxGeometry x="75" y="100" width="130" height="30" as="geometry" />
        </mxCell>
        <mxCell id="6kdPxDedIXkhTOWvpnSC-38" value="" style="endArrow=none;html=1;rounded=1;dashed=1;strokeWidth=2;curved=0;" edge="1" parent="1">
          <mxGeometry width="50" height="50" relative="1" as="geometry">
            <mxPoint x="280" y="440" as="sourcePoint" />
            <mxPoint x="280" y="80" as="targetPoint" />
          </mxGeometry>
        </mxCell>
        <mxCell id="6kdPxDedIXkhTOWvpnSC-39" value="x" style="endArrow=none;html=1;rounded=1;dashed=1;strokeWidth=2;curved=0;" edge="1" parent="1">
          <mxGeometry width="50" height="50" relative="1" as="geometry">
            <mxPoint x="660" y="440" as="sourcePoint" />
            <mxPoint x="660" y="80" as="targetPoint" />
          </mxGeometry>
        </mxCell>
        <mxCell id="6kdPxDedIXkhTOWvpnSC-40" value="&lt;font style=&quot;font-size: 16px;&quot;&gt;filters&lt;/font&gt;" style="text;html=1;align=center;verticalAlign=middle;whiteSpace=wrap;rounded=0;" vertex="1" parent="1">
          <mxGeometry x="410" y="90" width="130" height="30" as="geometry" />
        </mxCell>
        <mxCell id="6kdPxDedIXkhTOWvpnSC-41" value="&lt;font style=&quot;font-size: 16px;&quot;&gt;output&lt;/font&gt;" style="text;html=1;align=center;verticalAlign=middle;whiteSpace=wrap;rounded=0;" vertex="1" parent="1">
          <mxGeometry x="755" y="50" width="130" height="30" as="geometry" />
        </mxCell>
      </root>
    </mxGraphModel>
  </diagram>
</mxfile>
